<svg width="322" height="322" viewBox="0 0 322 322" fill="none" xmlns="http://www.w3.org/2000/svg">
<circle cx="161" cy="161" r="160.5" stroke="#0B7DB9"/>
<g clip-path="url(#clip0_0_1)">
<path d="M161 117.312C158.415 117.312 156.312 119.415 156.312 122C156.312 124.585 158.415 126.688 161 126.688C163.585 126.688 165.688 124.585 165.688 122C165.688 119.415 163.585 117.312 161 117.312ZM161 124.344C159.708 124.344 158.656 123.292 158.656 122C158.656 120.708 159.708 119.656 161 119.656C162.292 119.656 163.344 120.708 163.344 122C163.344 123.292 162.292 124.344 161 124.344Z" fill="#0B7DB9"/>
<path d="M184.789 129.031C185.436 129.031 185.961 128.507 185.961 127.859C185.961 127.212 185.436 126.688 184.789 126.688C184.142 126.688 183.617 127.212 183.617 127.859C183.617 128.507 184.142 129.031 184.789 129.031Z" fill="#0B7DB9"/>
<path d="M177.948 112.299C180.395 103.871 179.831 97.9339 176.352 95.9246C175.009 95.1496 172.607 94.638 168.788 96.6015C166.37 97.8444 163.694 99.9212 161.001 102.636C157.286 98.8699 153.718 96.3956 150.781 95.5443C150.27 93.4984 148.42 92 146.234 92C143.65 92 141.547 94.1028 141.547 96.6875C141.547 97.8902 142.015 99.0406 142.827 99.9023C141.852 103.465 142.816 108.37 143.991 112.315C135.715 114.49 131 117.989 131 122C131 126.011 135.715 129.51 143.991 131.685C142.816 135.63 141.852 140.535 142.827 144.098C142.015 144.959 141.547 146.11 141.547 147.312C141.547 149.897 143.65 152 146.234 152C148.42 152 150.27 150.502 150.781 148.456C153.718 147.604 157.285 145.13 161 141.364C164.715 145.13 168.282 147.604 171.219 148.456C171.73 150.502 173.58 152 175.766 152C178.35 152 180.453 149.897 180.453 147.312C180.453 146.109 179.985 144.958 179.173 144.097C180.147 140.535 179.183 135.629 178.008 131.684C178.795 131.477 179.558 131.255 180.287 131.021C180.903 130.823 181.242 130.163 181.044 129.547C180.846 128.931 180.186 128.592 179.57 128.789C178.844 129.023 178.081 129.243 177.292 129.449C176.464 127.037 175.436 124.534 174.225 121.989C175.421 119.457 176.435 116.958 177.248 114.539C184.215 116.352 188.656 119.234 188.656 122C188.656 122.629 188.426 123.274 187.971 123.917C187.596 124.445 187.721 125.176 188.25 125.55C188.778 125.924 189.509 125.799 189.883 125.271C190.624 124.224 191 123.124 191 122C191 117.977 186.263 114.472 177.948 112.299ZM169.859 98.686C171.449 97.8686 173.662 97.0784 175.18 97.9544C177.557 99.327 177.726 104.691 175.665 111.757C173.127 111.21 170.414 110.812 167.58 110.567C166 108.328 164.333 106.24 162.611 104.34C165.149 101.773 167.64 99.8265 169.859 98.686ZM161 137.946C159.792 136.604 158.61 135.164 157.466 133.637C158.636 133.691 159.817 133.719 161 133.719C162.183 133.719 163.364 133.691 164.534 133.637C163.39 135.164 162.208 136.605 161 137.946ZM160.996 106.05C162.206 107.395 163.39 108.837 164.534 110.363C162.199 110.256 159.815 110.256 157.457 110.364C158.605 108.83 159.788 107.388 160.996 106.05ZM155.713 131.187C154.712 129.722 153.761 128.211 152.881 126.688C151.99 125.143 151.148 123.568 150.374 122C151.148 120.432 151.99 118.858 152.881 117.312C153.771 115.771 154.721 114.26 155.709 112.814C159.215 112.564 162.833 112.565 166.287 112.813C167.288 114.278 168.239 115.789 169.119 117.313C170.006 118.85 170.847 120.422 171.622 121.993C170.853 123.562 170.013 125.139 169.119 126.688C168.239 128.211 167.288 129.722 166.287 131.187C162.821 131.435 159.18 131.435 155.713 131.187ZM150.851 116.141C150.247 117.188 149.665 118.249 149.11 119.312C148.306 117.511 147.601 115.738 147.002 114.011C148.82 113.626 150.73 113.317 152.714 113.09C152.071 114.088 151.448 115.107 150.851 116.141ZM149.111 124.688C149.665 125.752 150.247 126.812 150.852 127.859C151.444 128.885 152.068 129.905 152.716 130.91C150.731 130.683 148.821 130.374 147.002 129.989C147.601 128.262 148.306 126.489 149.111 124.688ZM171.149 127.859C171.754 126.811 172.335 125.749 172.888 124.685C173.693 126.49 174.399 128.264 174.998 129.989C173.179 130.374 171.269 130.683 169.284 130.91C169.932 129.905 170.557 128.885 171.149 127.859ZM171.149 116.141C170.557 115.115 169.932 114.095 169.284 113.09C171.254 113.316 173.15 113.621 174.955 114.002C174.368 115.729 173.674 117.499 172.88 119.295C172.327 118.235 171.748 117.18 171.149 116.141ZM159.385 104.336C157.669 106.224 156.002 108.314 154.414 110.567C151.562 110.814 148.83 111.216 146.275 111.769C144.967 107.409 144.502 103.684 144.941 101.194C145.357 101.313 145.791 101.375 146.234 101.375C148.365 101.375 150.168 99.9447 150.735 97.9941C153.176 98.8933 156.227 101.125 159.385 104.336ZM146.234 94.3438C147.529 94.3438 148.578 95.3914 148.578 96.6875C148.578 97.9798 147.527 99.0312 146.234 99.0312C144.936 99.0312 143.891 97.9714 143.891 96.6875C143.891 95.3952 144.942 94.3438 146.234 94.3438ZM133.344 122C133.344 119.242 137.768 116.364 144.708 114.551C145.536 116.965 146.563 119.463 147.77 122C146.563 124.537 145.536 127.036 144.708 129.45C137.768 127.636 133.344 124.758 133.344 122ZM146.234 149.656C144.942 149.656 143.891 148.605 143.891 147.312C143.891 146.03 144.935 144.969 146.234 144.969C147.616 144.969 148.668 146.172 148.576 147.417C148.575 147.425 148.574 147.433 148.574 147.441C148.508 148.683 147.48 149.656 146.234 149.656ZM150.735 146.006C150.168 144.055 148.365 142.625 146.234 142.625C145.791 142.625 145.357 142.687 144.941 142.806C144.502 140.316 144.967 136.591 146.275 132.23C148.832 132.784 151.566 133.186 154.42 133.433C156.003 135.675 157.67 137.763 159.389 139.66C156.229 142.873 153.176 145.106 150.735 146.006ZM162.611 139.66C164.33 137.764 165.997 135.675 167.58 133.433C170.435 133.186 173.168 132.784 175.725 132.23C177.033 136.591 177.498 140.316 177.06 142.806C176.643 142.687 176.209 142.625 175.766 142.625C173.634 142.625 171.832 144.055 171.265 146.006C168.824 145.106 165.771 142.873 162.611 139.66ZM175.766 149.656C174.52 149.656 173.492 148.683 173.426 147.441C173.426 147.433 173.425 147.425 173.425 147.417C173.332 146.178 174.376 144.969 175.766 144.969C177.067 144.969 178.109 146.032 178.109 147.312C178.109 148.605 177.058 149.656 175.766 149.656Z" fill="#0B7DB9"/>
</g>
<path d="M111.496 201.576C111.496 202.771 111.208 203.891 110.632 204.936C110.077 205.981 109.192 206.824 107.976 207.464C106.781 208.104 105.267 208.424 103.432 208.424H99.688V217H95.208V194.664H103.432C105.16 194.664 106.632 194.963 107.848 195.56C109.064 196.157 109.971 196.979 110.568 198.024C111.187 199.069 111.496 200.253 111.496 201.576ZM103.24 204.808C104.477 204.808 105.395 204.531 105.992 203.976C106.589 203.4 106.888 202.6 106.888 201.576C106.888 199.4 105.672 198.312 103.24 198.312H99.688V204.808H103.24ZM133.205 194.664V217H128.725V207.496H119.157V217H114.677V194.664H119.157V203.848H128.725V194.664H133.205ZM155.374 194.664L147.822 209.224V217H143.342V209.224L135.758 194.664H140.814L145.614 204.872L150.382 194.664H155.374ZM165.67 217.224C164.113 217.224 162.705 216.957 161.446 216.424C160.209 215.891 159.227 215.123 158.502 214.12C157.777 213.117 157.403 211.933 157.382 210.568H162.182C162.246 211.485 162.566 212.211 163.142 212.744C163.739 213.277 164.55 213.544 165.574 213.544C166.619 213.544 167.441 213.299 168.038 212.808C168.635 212.296 168.934 211.635 168.934 210.824C168.934 210.163 168.731 209.619 168.326 209.192C167.921 208.765 167.409 208.435 166.79 208.2C166.193 207.944 165.361 207.667 164.294 207.368C162.843 206.941 161.659 206.525 160.742 206.12C159.846 205.693 159.067 205.064 158.406 204.232C157.766 203.379 157.446 202.248 157.446 200.84C157.446 199.517 157.777 198.365 158.438 197.384C159.099 196.403 160.027 195.656 161.222 195.144C162.417 194.611 163.782 194.344 165.318 194.344C167.622 194.344 169.489 194.909 170.918 196.04C172.369 197.149 173.169 198.707 173.318 200.712H168.39C168.347 199.944 168.017 199.315 167.398 198.824C166.801 198.312 166.001 198.056 164.998 198.056C164.123 198.056 163.419 198.28 162.886 198.728C162.374 199.176 162.118 199.827 162.118 200.68C162.118 201.277 162.31 201.779 162.694 202.184C163.099 202.568 163.59 202.888 164.166 203.144C164.763 203.379 165.595 203.656 166.662 203.976C168.113 204.403 169.297 204.829 170.214 205.256C171.131 205.683 171.921 206.323 172.582 207.176C173.243 208.029 173.574 209.149 173.574 210.536C173.574 211.731 173.265 212.84 172.646 213.864C172.027 214.888 171.121 215.709 169.926 216.328C168.731 216.925 167.313 217.224 165.67 217.224ZM181.938 194.664V217H177.458V194.664H181.938ZM185.276 205.8C185.276 203.603 185.767 201.64 186.748 199.912C187.751 198.163 189.106 196.808 190.812 195.848C192.54 194.867 194.471 194.376 196.604 194.376C199.1 194.376 201.287 195.016 203.164 196.296C205.042 197.576 206.354 199.347 207.1 201.608H201.948C201.436 200.541 200.711 199.741 199.772 199.208C198.855 198.675 197.788 198.408 196.572 198.408C195.271 198.408 194.108 198.717 193.084 199.336C192.082 199.933 191.292 200.787 190.716 201.896C190.162 203.005 189.884 204.307 189.884 205.8C189.884 207.272 190.162 208.573 190.716 209.704C191.292 210.813 192.082 211.677 193.084 212.296C194.108 212.893 195.271 213.192 196.572 213.192C197.788 213.192 198.855 212.925 199.772 212.392C200.711 211.837 201.436 211.027 201.948 209.96H207.1C206.354 212.243 205.042 214.024 203.164 215.304C201.308 216.563 199.122 217.192 196.604 217.192C194.471 217.192 192.54 216.712 190.812 215.752C189.106 214.771 187.751 213.416 186.748 211.688C185.767 209.96 185.276 207.997 185.276 205.8ZM218.639 217.224C217.081 217.224 215.673 216.957 214.415 216.424C213.177 215.891 212.196 215.123 211.471 214.12C210.745 213.117 210.372 211.933 210.351 210.568H215.151C215.215 211.485 215.535 212.211 216.111 212.744C216.708 213.277 217.519 213.544 218.543 213.544C219.588 213.544 220.409 213.299 221.007 212.808C221.604 212.296 221.903 211.635 221.903 210.824C221.903 210.163 221.7 209.619 221.295 209.192C220.889 208.765 220.377 208.435 219.759 208.2C219.161 207.944 218.329 207.667 217.263 207.368C215.812 206.941 214.628 206.525 213.711 206.12C212.815 205.693 212.036 205.064 211.375 204.232C210.735 203.379 210.415 202.248 210.415 200.84C210.415 199.517 210.745 198.365 211.407 197.384C212.068 196.403 212.996 195.656 214.191 195.144C215.385 194.611 216.751 194.344 218.287 194.344C220.591 194.344 222.457 194.909 223.887 196.04C225.337 197.149 226.137 198.707 226.287 200.712H221.359C221.316 199.944 220.985 199.315 220.367 198.824C219.769 198.312 218.969 198.056 217.967 198.056C217.092 198.056 216.388 198.28 215.855 198.728C215.343 199.176 215.087 199.827 215.087 200.68C215.087 201.277 215.279 201.779 215.663 202.184C216.068 202.568 216.559 202.888 217.135 203.144C217.732 203.379 218.564 203.656 219.631 203.976C221.081 204.403 222.265 204.829 223.183 205.256C224.1 205.683 224.889 206.323 225.551 207.176C226.212 208.029 226.543 209.149 226.543 210.536C226.543 211.731 226.233 212.84 225.615 213.864C224.996 214.888 224.089 215.709 222.895 216.328C221.7 216.925 220.281 217.224 218.639 217.224Z" fill="#0B7DB9"/>
<defs>
<clipPath id="clip0_0_1">
<rect width="60" height="60" fill="white" transform="translate(131 92)"/>
</clipPath>
</defs>
</svg>
