<svg width="322" height="322" viewBox="0 0 322 322" fill="none" xmlns="http://www.w3.org/2000/svg">
<circle cx="161" cy="161" r="160.5" stroke="#0B7DB9"/>
<g clip-path="url(#clip0_1_785)">
<path d="M188.273 124.127V98.4546C188.273 95.4462 185.825 93 182.818 93H136.455C133.448 93 131 95.4462 131 98.4546V144.818C131 147.826 133.448 150.273 136.455 150.273H162.127C164.992 151.993 168.332 153 171.909 153C182.435 153 191 144.436 191 133.909C191 130.331 189.993 126.992 188.273 124.127ZM161 95.7272H182.818C184.323 95.7272 185.546 96.9511 185.546 98.4545V120.574C182.077 117.028 177.249 114.818 171.909 114.818C167.853 114.818 164.096 116.099 161 118.265V95.7272ZM133.727 98.4546C133.727 96.9512 134.95 95.7274 136.454 95.7274H158.273V120.273H133.727V98.4546ZM136.455 147.546C134.95 147.546 133.727 146.322 133.727 144.818V123H156.265C154.099 126.096 152.818 129.853 152.818 133.909C152.818 139.249 155.028 144.077 158.574 147.546H136.455ZM171.909 150.273C162.886 150.273 155.545 142.932 155.545 133.909C155.545 124.886 162.886 117.545 171.909 117.545C180.932 117.545 188.273 124.886 188.273 133.909C188.273 142.932 180.932 150.273 171.909 150.273Z" fill="#0B7DB9"/>
<path d="M151.455 106.636H147.364V102.545C147.364 101.792 146.754 101.182 146 101.182C145.246 101.182 144.636 101.792 144.636 102.545V106.636H140.545C139.792 106.636 139.182 107.246 139.182 108C139.182 108.754 139.792 109.364 140.545 109.364H144.636V113.454C144.636 114.208 145.246 114.818 146 114.818C146.754 114.818 147.364 114.208 147.364 113.454V109.364H151.455C152.208 109.364 152.818 108.754 152.818 108C152.818 107.246 152.208 106.636 151.455 106.636Z" fill="#0B7DB9"/>
<path d="M180.091 107.999C180.091 107.246 179.481 106.636 178.727 106.636H167.818C167.064 106.636 166.455 107.246 166.455 107.999C166.455 108.753 167.064 109.363 167.818 109.363H178.727C179.481 109.363 180.091 108.753 180.091 107.999Z" fill="#0B7DB9"/>
<path d="M151.055 130.218C150.522 129.685 149.659 129.685 149.127 130.218L146 133.345L142.873 130.218C142.341 129.685 141.478 129.685 140.945 130.218C140.412 130.751 140.412 131.613 140.945 132.146L144.072 135.273L140.945 138.4C140.412 138.932 140.412 139.795 140.945 140.328C141.211 140.594 141.56 140.727 141.909 140.727C142.258 140.727 142.607 140.594 142.873 140.328L146 137.201L149.127 140.328C149.393 140.594 149.742 140.727 150.091 140.727C150.44 140.727 150.789 140.594 151.055 140.328C151.588 139.795 151.588 138.932 151.055 138.4L147.928 135.273L151.055 132.146C151.588 131.613 151.588 130.751 151.055 130.218Z" fill="#0B7DB9"/>
<path d="M178.727 128.455H165.091C164.337 128.455 163.727 129.065 163.727 129.819C163.727 130.572 164.337 131.182 165.091 131.182H178.727C179.481 131.182 180.091 130.572 180.091 129.819C180.091 129.065 179.481 128.455 178.727 128.455Z" fill="#0B7DB9"/>
<path d="M178.727 136.636H165.091C164.337 136.636 163.727 137.246 163.727 137.999C163.727 138.753 164.337 139.363 165.091 139.363H178.727C179.481 139.363 180.091 138.753 180.091 137.999C180.091 137.246 179.481 136.636 178.727 136.636Z" fill="#0B7DB9"/>
</g>
<path d="M130.56 193.664V216H126.08V201.472L120.096 216H116.704L110.688 201.472V216H106.208V193.664H111.296L118.4 210.272L125.504 193.664H130.56ZM148.685 211.744H139.789L138.317 216H133.613L141.645 193.632H146.861L154.893 216H150.157L148.685 211.744ZM147.469 208.16L144.237 198.816L141.005 208.16H147.469ZM173.096 193.664V197.28H167.144V216H162.664V197.28H156.712V193.664H173.096ZM194.892 193.664V216H190.412V206.496H180.844V216H176.364V193.664H180.844V202.848H190.412V193.664H194.892ZM207.014 216.224C205.456 216.224 204.048 215.957 202.79 215.424C201.552 214.891 200.571 214.123 199.846 213.12C199.12 212.117 198.747 210.933 198.726 209.568H203.526C203.59 210.485 203.91 211.211 204.486 211.744C205.083 212.277 205.894 212.544 206.918 212.544C207.963 212.544 208.784 212.299 209.382 211.808C209.979 211.296 210.278 210.635 210.278 209.824C210.278 209.163 210.075 208.619 209.67 208.192C209.264 207.765 208.752 207.435 208.134 207.2C207.536 206.944 206.704 206.667 205.638 206.368C204.187 205.941 203.003 205.525 202.086 205.12C201.19 204.693 200.411 204.064 199.75 203.232C199.11 202.379 198.79 201.248 198.79 199.84C198.79 198.517 199.12 197.365 199.782 196.384C200.443 195.403 201.371 194.656 202.566 194.144C203.76 193.611 205.126 193.344 206.662 193.344C208.966 193.344 210.832 193.909 212.262 195.04C213.712 196.149 214.512 197.707 214.662 199.712H209.734C209.691 198.944 209.36 198.315 208.742 197.824C208.144 197.312 207.344 197.056 206.342 197.056C205.467 197.056 204.763 197.28 204.23 197.728C203.718 198.176 203.462 198.827 203.462 199.68C203.462 200.277 203.654 200.779 204.038 201.184C204.443 201.568 204.934 201.888 205.51 202.144C206.107 202.379 206.939 202.656 208.006 202.976C209.456 203.403 210.64 203.829 211.558 204.256C212.475 204.683 213.264 205.323 213.926 206.176C214.587 207.029 214.918 208.149 214.918 209.536C214.918 210.731 214.608 211.84 213.99 212.864C213.371 213.888 212.464 214.709 211.27 215.328C210.075 215.925 208.656 216.224 207.014 216.224Z" fill="#0B7DB9"/>
<defs>
<clipPath id="clip0_1_785">
<rect width="60" height="60" fill="white" transform="translate(131 93)"/>
</clipPath>
</defs>
</svg>
