<svg width="322" height="322" viewBox="0 0 322 322" fill="none" xmlns="http://www.w3.org/2000/svg">
<circle cx="161" cy="161" r="160.5" stroke="#0B7DB9"/>
<path d="M71.12 205.8C71.12 203.603 71.6107 201.64 72.592 199.912C73.5947 198.163 74.9493 196.808 76.656 195.848C78.384 194.867 80.3147 194.376 82.448 194.376C84.944 194.376 87.1307 195.016 89.008 196.296C90.8853 197.576 92.1973 199.347 92.944 201.608H87.792C87.28 200.541 86.5547 199.741 85.616 199.208C84.6987 198.675 83.632 198.408 82.416 198.408C81.1147 198.408 79.952 198.717 78.928 199.336C77.9253 199.933 77.136 200.787 76.56 201.896C76.0053 203.005 75.728 204.307 75.728 205.8C75.728 207.272 76.0053 208.573 76.56 209.704C77.136 210.813 77.9253 211.677 78.928 212.296C79.952 212.893 81.1147 213.192 82.416 213.192C83.632 213.192 84.6987 212.925 85.616 212.392C86.5547 211.837 87.28 211.027 87.792 209.96H92.944C92.1973 212.243 90.8853 214.024 89.008 215.304C87.152 216.563 84.9653 217.192 82.448 217.192C80.3147 217.192 78.384 216.712 76.656 215.752C74.9493 214.771 73.5947 213.416 72.592 211.688C71.6107 209.96 71.12 207.997 71.12 205.8ZM115.299 194.664V217H110.819V207.496H101.251V217H96.7705V194.664H101.251V203.848H110.819V194.664H115.299ZM124.188 198.28V203.88H131.708V207.432H124.188V213.352H132.668V217H119.708V194.632H132.668V198.28H124.188ZM161.091 194.664V217H156.611V202.472L150.627 217H147.235L141.219 202.472V217H136.739V194.664H141.827L148.931 211.272L156.035 194.664H161.091ZM170.001 194.664V217H165.521V194.664H170.001ZM182.139 217.224C180.581 217.224 179.173 216.957 177.915 216.424C176.677 215.891 175.696 215.123 174.971 214.12C174.245 213.117 173.872 211.933 173.851 210.568H178.651C178.715 211.485 179.035 212.211 179.611 212.744C180.208 213.277 181.019 213.544 182.043 213.544C183.088 213.544 183.909 213.299 184.507 212.808C185.104 212.296 185.403 211.635 185.403 210.824C185.403 210.163 185.2 209.619 184.795 209.192C184.389 208.765 183.877 208.435 183.259 208.2C182.661 207.944 181.829 207.667 180.763 207.368C179.312 206.941 178.128 206.525 177.211 206.12C176.315 205.693 175.536 205.064 174.875 204.232C174.235 203.379 173.915 202.248 173.915 200.84C173.915 199.517 174.245 198.365 174.907 197.384C175.568 196.403 176.496 195.656 177.691 195.144C178.885 194.611 180.251 194.344 181.787 194.344C184.091 194.344 185.957 194.909 187.387 196.04C188.837 197.149 189.637 198.707 189.787 200.712H184.859C184.816 199.944 184.485 199.315 183.867 198.824C183.269 198.312 182.469 198.056 181.467 198.056C180.592 198.056 179.888 198.28 179.355 198.728C178.843 199.176 178.587 199.827 178.587 200.68C178.587 201.277 178.779 201.779 179.163 202.184C179.568 202.568 180.059 202.888 180.635 203.144C181.232 203.379 182.064 203.656 183.131 203.976C184.581 204.403 185.765 204.829 186.683 205.256C187.6 205.683 188.389 206.323 189.051 207.176C189.712 208.029 190.043 209.149 190.043 210.536C190.043 211.731 189.733 212.84 189.115 213.864C188.496 214.888 187.589 215.709 186.395 216.328C185.2 216.925 183.781 217.224 182.139 217.224ZM209.127 194.664V198.28H203.175V217H198.695V198.28H192.743V194.664H209.127ZM223.916 217L218.988 208.296H216.876V217H212.396V194.664H220.78C222.508 194.664 223.98 194.973 225.196 195.592C226.412 196.189 227.318 197.011 227.916 198.056C228.534 199.08 228.844 200.232 228.844 201.512C228.844 202.984 228.417 204.317 227.564 205.512C226.71 206.685 225.441 207.496 223.756 207.944L229.1 217H223.916ZM216.876 204.936H220.62C221.836 204.936 222.742 204.648 223.34 204.072C223.937 203.475 224.236 202.653 224.236 201.608C224.236 200.584 223.937 199.795 223.34 199.24C222.742 198.664 221.836 198.376 220.62 198.376H216.876V204.936ZM250.656 194.664L243.104 209.224V217H238.624V209.224L231.04 194.664H236.096L240.896 204.872L245.664 194.664H250.656Z" fill="#0B7DB9"/>
<g clip-path="url(#clip0_1_804)">
<path d="M165.027 142.625L152.25 122.875V107C152.25 106.31 151.691 105.75 151 105.75H144.75C144.06 105.75 143.5 106.31 143.5 107V122.91L131.852 142.713C131.294 143.66 131 144.739 131 145.838C131 149.241 133.759 152 137.163 152H159.925C161.095 152 162.24 151.662 163.222 151.027C166.041 149.205 166.848 145.443 165.027 142.625ZM159.925 149.5H137.163C136.508 149.501 135.864 149.326 135.299 148.994C133.556 147.968 132.974 145.723 134 143.98L145.828 123.884C145.941 123.692 146 123.473 146 123.25V108.25H149.75V123.25C149.75 123.491 149.82 123.727 149.95 123.929L162.925 143.982C163.3 144.561 163.499 145.235 163.499 145.924C163.5 147.898 161.9 149.499 159.925 149.5Z" fill="#0B7DB9"/>
<path d="M149.006 128.34L146.851 127.074L136.238 145.116C136.124 145.308 136.065 145.527 136.065 145.751C136.066 146.441 136.626 147 137.316 146.999H146V144.499H139.5L149.006 128.34Z" fill="#0B7DB9"/>
<path d="M187.982 120.75H168.5C165.739 120.75 163.5 122.989 163.5 125.75V145.75C163.504 149.2 166.3 151.996 169.75 152H181C184.45 151.996 187.246 149.2 187.25 145.75V128.768L190.117 125.901C190.682 125.336 190.999 124.569 191 123.77C191 122.103 189.65 120.751 187.982 120.75ZM188.349 124.134L185.116 127.366C184.882 127.601 184.75 127.919 184.75 128.25V145.75C184.75 147.821 183.071 149.5 181 149.5H169.75C167.679 149.5 166 147.821 166 145.75V125.75C166 124.369 167.119 123.25 168.5 123.25H187.983C188.12 123.25 188.252 123.305 188.349 123.402C188.551 123.604 188.551 123.932 188.349 124.134Z" fill="#0B7DB9"/>
<path d="M179.75 128.25V144.5H176V147H181C181.691 147 182.251 146.44 182.251 145.75V128.25H179.75Z" fill="#0B7DB9"/>
<path d="M166 110.105V93.25C166 92.5597 165.44 92 164.75 92H156C155.31 92 154.75 92.5597 154.75 93.25V110.46C153.224 110.93 151.757 111.57 150.375 112.369L151.625 114.533C153.094 113.685 154.67 113.04 156.312 112.616C156.865 112.474 157.251 111.975 157.25 111.405V94.5H163.5V111.114C163.5 111.714 163.927 112.229 164.516 112.341C168.899 113.179 172.84 115.551 175.632 119.033L177.581 117.468C174.64 113.802 170.568 111.213 166 110.105Z" fill="#0B7DB9"/>
<path d="M184.125 109.5C181.709 109.5 179.75 111.459 179.75 113.875C179.75 116.291 181.709 118.25 184.125 118.25C186.542 118.25 188.5 116.291 188.5 113.875C188.5 111.459 186.542 109.5 184.125 109.5ZM184.125 115.75C183.09 115.75 182.25 114.911 182.25 113.875C182.25 112.839 183.09 112 184.125 112C185.161 112 186 112.839 186 113.875C186 114.911 185.161 115.75 184.125 115.75Z" fill="#0B7DB9"/>
<path d="M179.75 100.75C177.679 100.75 176 102.429 176 104.5C176 106.571 177.679 108.25 179.75 108.25C181.821 108.25 183.5 106.571 183.5 104.5C183.5 102.429 181.821 100.75 179.75 100.75ZM179.75 105.75C179.06 105.75 178.5 105.19 178.5 104.5C178.5 103.809 179.06 103.25 179.75 103.25C180.441 103.25 181 103.81 181 104.5C181 105.19 180.441 105.75 179.75 105.75Z" fill="#0B7DB9"/>
<path d="M135.375 102C132.959 102 131 103.959 131 106.375C131 108.791 132.959 110.75 135.375 110.75C137.792 110.75 139.75 108.791 139.75 106.375C139.75 103.959 137.792 102 135.375 102ZM135.375 108.25C134.34 108.25 133.5 107.411 133.5 106.375C133.5 105.34 134.34 104.5 135.375 104.5C136.411 104.5 137.25 105.34 137.25 106.375C137.25 107.411 136.411 108.25 135.375 108.25Z" fill="#0B7DB9"/>
<path d="M141 93.25C138.929 93.25 137.25 94.929 137.25 97C137.25 99.071 138.929 100.75 141 100.75C143.071 100.75 144.75 99.071 144.75 97C144.75 94.929 143.071 93.25 141 93.25ZM141 98.2499C140.31 98.2499 139.75 97.6902 139.75 96.9999C139.75 96.3096 140.31 95.75 141 95.75C141.69 95.75 142.25 96.3096 142.25 97C142.25 97.6904 141.69 98.2499 141 98.2499Z" fill="#0B7DB9"/>
<path d="M172.25 128.25H168.5V130.75H172.25V128.25Z" fill="#0B7DB9"/>
<path d="M171 133.25H168.5V135.75H171V133.25Z" fill="#0B7DB9"/>
<path d="M172.25 138.25H168.5V140.75H172.25V138.25Z" fill="#0B7DB9"/>
<path d="M171 143.25H168.5V145.75H171V143.25Z" fill="#0B7DB9"/>
<path d="M136 114.5H133.5V117H136V114.5Z" fill="#0B7DB9"/>
<path d="M139.75 120.75H137.25V123.25H139.75V120.75Z" fill="#0B7DB9"/>
<path d="M161 125.75H158.5V128.25H161V125.75Z" fill="#0B7DB9"/>
<path d="M158.5 120.75H156V123.25H158.5V120.75Z" fill="#0B7DB9"/>
<path d="M157.25 115.75H154.75V118.25H157.25V115.75Z" fill="#0B7DB9"/>
<path d="M158.5 143.25H156V145.75H158.5V143.25Z" fill="#0B7DB9"/>
<path d="M154.75 138.25H152.25V140.75H154.75V138.25Z" fill="#0B7DB9"/>
</g>
<defs>
<clipPath id="clip0_1_804">
<rect width="60" height="60" fill="white" transform="translate(131 92)"/>
</clipPath>
</defs>
</svg>
