<svg width="322" height="322" viewBox="0 0 322 322" fill="none" xmlns="http://www.w3.org/2000/svg">
<circle cx="161" cy="161" r="160.5" stroke="#0B7DB9"/>
<path d="M105.88 203.544C107.139 203.779 108.173 204.408 108.984 205.432C109.795 206.456 110.2 207.629 110.2 208.952C110.2 210.147 109.901 211.203 109.304 212.12C108.728 213.016 107.885 213.72 106.776 214.232C105.667 214.744 104.355 215 102.84 215H93.208V192.664H102.424C103.939 192.664 105.24 192.909 106.328 193.4C107.437 193.891 108.269 194.573 108.824 195.448C109.4 196.323 109.688 197.315 109.688 198.424C109.688 199.725 109.336 200.813 108.632 201.688C107.949 202.563 107.032 203.181 105.88 203.544ZM97.688 201.88H101.784C102.851 201.88 103.672 201.645 104.248 201.176C104.824 200.685 105.112 199.992 105.112 199.096C105.112 198.2 104.824 197.507 104.248 197.016C103.672 196.525 102.851 196.28 101.784 196.28H97.688V201.88ZM102.2 211.352C103.288 211.352 104.131 211.096 104.728 210.584C105.347 210.072 105.656 209.347 105.656 208.408C105.656 207.448 105.336 206.701 104.696 206.168C104.056 205.613 103.192 205.336 102.104 205.336H97.688V211.352H102.2ZM118.251 192.664V215H113.771V192.664H118.251ZM133.045 215.224C130.954 215.224 129.034 214.733 127.285 213.752C125.535 212.771 124.149 211.416 123.125 209.688C122.101 207.939 121.589 205.965 121.589 203.768C121.589 201.592 122.101 199.64 123.125 197.912C124.149 196.163 125.535 194.797 127.285 193.816C129.034 192.835 130.954 192.344 133.045 192.344C135.157 192.344 137.077 192.835 138.805 193.816C140.554 194.797 141.93 196.163 142.933 197.912C143.957 199.64 144.469 201.592 144.469 203.768C144.469 205.965 143.957 207.939 142.933 209.688C141.93 211.416 140.554 212.771 138.805 213.752C137.055 214.733 135.135 215.224 133.045 215.224ZM133.045 211.224C134.389 211.224 135.573 210.925 136.597 210.328C137.621 209.709 138.421 208.835 138.997 207.704C139.573 206.573 139.861 205.261 139.861 203.768C139.861 202.275 139.573 200.973 138.997 199.864C138.421 198.733 137.621 197.869 136.597 197.272C135.573 196.675 134.389 196.376 133.045 196.376C131.701 196.376 130.506 196.675 129.461 197.272C128.437 197.869 127.637 198.733 127.061 199.864C126.485 200.973 126.197 202.275 126.197 203.768C126.197 205.261 126.485 206.573 127.061 207.704C127.637 208.835 128.437 209.709 129.461 210.328C130.506 210.925 131.701 211.224 133.045 211.224ZM152.282 211.448H159.642V215H147.802V192.664H152.282V211.448ZM172.857 215.224C170.767 215.224 168.847 214.733 167.097 213.752C165.348 212.771 163.961 211.416 162.937 209.688C161.913 207.939 161.401 205.965 161.401 203.768C161.401 201.592 161.913 199.64 162.937 197.912C163.961 196.163 165.348 194.797 167.097 193.816C168.847 192.835 170.767 192.344 172.857 192.344C174.969 192.344 176.889 192.835 178.617 193.816C180.367 194.797 181.743 196.163 182.745 197.912C183.769 199.64 184.281 201.592 184.281 203.768C184.281 205.965 183.769 207.939 182.745 209.688C181.743 211.416 180.367 212.771 178.617 213.752C176.868 214.733 174.948 215.224 172.857 215.224ZM172.857 211.224C174.201 211.224 175.385 210.925 176.409 210.328C177.433 209.709 178.233 208.835 178.809 207.704C179.385 206.573 179.673 205.261 179.673 203.768C179.673 202.275 179.385 200.973 178.809 199.864C178.233 198.733 177.433 197.869 176.409 197.272C175.385 196.675 174.201 196.376 172.857 196.376C171.513 196.376 170.319 196.675 169.273 197.272C168.249 197.869 167.449 198.733 166.873 199.864C166.297 200.973 166.009 202.275 166.009 203.768C166.009 205.261 166.297 206.573 166.873 207.704C167.449 208.835 168.249 209.709 169.273 210.328C170.319 210.925 171.513 211.224 172.857 211.224ZM203.166 199.384C202.654 198.445 201.95 197.731 201.054 197.24C200.158 196.749 199.113 196.504 197.918 196.504C196.596 196.504 195.422 196.803 194.398 197.4C193.374 197.997 192.574 198.851 191.998 199.96C191.422 201.069 191.134 202.349 191.134 203.8C191.134 205.293 191.422 206.595 191.998 207.704C192.596 208.813 193.417 209.667 194.462 210.264C195.508 210.861 196.724 211.16 198.11 211.16C199.817 211.16 201.214 210.712 202.302 209.816C203.39 208.899 204.105 207.629 204.446 206.008H196.766V202.584H208.862V206.488C208.564 208.045 207.924 209.485 206.942 210.808C205.961 212.131 204.692 213.197 203.134 214.008C201.598 214.797 199.87 215.192 197.95 215.192C195.796 215.192 193.844 214.712 192.094 213.752C190.366 212.771 189.001 211.416 187.998 209.688C187.017 207.96 186.526 205.997 186.526 203.8C186.526 201.603 187.017 199.64 187.998 197.912C189.001 196.163 190.366 194.808 192.094 193.848C193.844 192.867 195.785 192.376 197.918 192.376C200.436 192.376 202.622 192.995 204.478 194.232C206.334 195.448 207.614 197.165 208.318 199.384H203.166ZM229.937 192.664L222.385 207.224V215H217.905V207.224L210.321 192.664H215.377L220.177 202.872L224.945 192.664H229.937Z" fill="#0B7DB9"/>
<g clip-path="url(#clip0_1_829)">
<mask id="mask0_1_829" style="mask-type:luminance" maskUnits="userSpaceOnUse" x="131" y="90" width="60" height="60">
<path d="M191 90H131V150H191V90Z" fill="white"/>
</mask>
<g mask="url(#mask0_1_829)">
<path d="M171.588 111.498C160.973 111.498 152.337 120.134 152.337 130.749C152.337 141.364 160.973 150 171.588 150C182.203 150 190.839 141.364 190.839 130.749C190.839 120.134 182.203 111.498 171.588 111.498ZM171.588 148.075C162.035 148.075 154.262 140.303 154.262 130.749C154.262 121.196 162.035 113.423 171.588 113.423C181.141 113.423 188.914 121.196 188.914 130.749C188.914 140.303 181.141 148.075 171.588 148.075Z" fill="#0B7DB9"/>
<path d="M149.449 144.158V125.475L152.888 123.068L151.785 121.49L149.449 123.125V107.18L155.784 102.655L154.665 101.089L149.449 104.815V98.0219H147.524V114.44L142.308 110.714L141.189 112.28L147.524 116.805V132.75L139.413 127.072L138.31 128.65L147.524 135.101V144.172C144.134 143.862 133.086 141.716 133.086 126.899C133.086 108.789 145.505 95.5299 148.487 92.6085C150.589 94.6645 157.37 101.836 161.176 112.161L162.983 111.496C158.287 98.7573 149.496 90.8913 149.124 90.5631L148.487 90L147.849 90.5621C147.169 91.1637 131.161 105.534 131.161 126.899C131.161 143.299 143.89 145.727 147.524 146.086V150H149.449V146.095C150.652 145.985 152.845 145.653 155.256 144.649L154.518 142.872C152.453 143.731 150.546 144.044 149.449 144.158Z" fill="#0B7DB9"/>
<path d="M184.101 128.455L186.753 127.13L185.891 125.408L183.139 126.784L180.251 125.34V120.755L181.991 119.886L181.13 118.164L179.288 119.084L176.401 117.64V115.853H174.476V117.64L171.588 119.084L168.7 117.64V115.853H166.775V117.64L163.887 119.084L162.046 118.164L161.185 119.886L162.925 120.755V125.34L160.037 126.784L157.284 125.408L156.423 127.13L159.075 128.455V133.04L156.423 134.365L157.284 136.087L160.037 134.711L162.925 136.155V140.74L161.185 141.61L162.046 143.332L163.887 142.412L166.775 143.856V145.644H168.7V143.856L171.588 142.412L174.476 143.856V145.644H176.401V143.856L179.288 142.412L181.13 143.333L181.991 141.611L179.288 140.26L175.438 142.185L172.55 140.741V136.156L175.438 134.712L179.288 136.637L183.139 134.712L185.891 136.088L186.753 134.366L184.101 133.041V128.455ZM161 133.041V128.455L163.887 127.011L166.775 128.455V133.041L163.887 134.485L161 133.041ZM170.625 140.741L167.738 142.185L164.85 140.741V136.156L167.738 134.712L170.625 136.156V140.741ZM174.476 133.041L171.588 134.485L168.7 133.041V128.455L171.588 127.011L174.476 128.455V133.041ZM171.588 124.859L167.738 126.784L164.85 125.34V120.755L167.738 119.311L171.588 121.236L175.438 119.311L178.326 120.755V125.34L175.438 126.784L171.588 124.859ZM182.176 133.041L179.288 134.485L176.401 133.041V128.455L179.288 127.011L182.176 128.455V133.041Z" fill="#0B7DB9"/>
</g>
</g>
<defs>
<clipPath id="clip0_1_829">
<rect width="60" height="60" fill="white" transform="translate(131 90)"/>
</clipPath>
</defs>
</svg>
