<svg width="403" height="54" viewBox="0 0 403 54" fill="none" xmlns="http://www.w3.org/2000/svg">
<path d="M62.12 26.8C62.12 24.6027 62.6107 22.64 63.592 20.912C64.5947 19.1627 65.9493 17.808 67.656 16.848C69.384 15.8667 71.3147 15.376 73.448 15.376C75.944 15.376 78.1307 16.016 80.008 17.296C81.8853 18.576 83.1973 20.3467 83.944 22.608H78.792C78.28 21.5413 77.5547 20.7413 76.616 20.208C75.6987 19.6747 74.632 19.408 73.416 19.408C72.1147 19.408 70.952 19.7173 69.928 20.336C68.9253 20.9333 68.136 21.7867 67.56 22.896C67.0053 24.0053 66.728 25.3067 66.728 26.8C66.728 28.272 67.0053 29.5733 67.56 30.704C68.136 31.8133 68.9253 32.6773 69.928 33.296C70.952 33.8933 72.1147 34.192 73.416 34.192C74.632 34.192 75.6987 33.9253 76.616 33.392C77.5547 32.8373 78.28 32.0267 78.792 30.96H83.944C83.1973 33.2427 81.8853 35.024 80.008 36.304C78.152 37.5627 75.9653 38.192 73.448 38.192C71.3147 38.192 69.384 37.712 67.656 36.752C65.9493 35.7707 64.5947 34.416 63.592 32.688C62.6107 30.96 62.12 28.9973 62.12 26.8ZM92.2505 34.448H99.6105V38H87.7705V15.664H92.2505V34.448ZM116.154 33.744H107.258L105.786 38H101.082L109.114 15.632H114.33L122.362 38H117.626L116.154 33.744ZM114.938 30.16L111.706 20.816L108.474 30.16H114.938ZM133.076 38.224C131.519 38.224 130.111 37.9573 128.852 37.424C127.615 36.8907 126.634 36.1227 125.908 35.12C125.183 34.1173 124.81 32.9333 124.788 31.568H129.588C129.652 32.4853 129.972 33.2107 130.548 33.744C131.146 34.2773 131.956 34.544 132.98 34.544C134.026 34.544 134.847 34.2987 135.444 33.808C136.042 33.296 136.34 32.6347 136.34 31.824C136.34 31.1627 136.138 30.6187 135.732 30.192C135.327 29.7653 134.815 29.4347 134.196 29.2C133.599 28.944 132.767 28.6667 131.7 28.368C130.25 27.9413 129.066 27.5253 128.148 27.12C127.252 26.6933 126.474 26.064 125.812 25.232C125.172 24.3787 124.852 23.248 124.852 21.84C124.852 20.5173 125.183 19.3653 125.844 18.384C126.506 17.4027 127.434 16.656 128.628 16.144C129.823 15.6107 131.188 15.344 132.724 15.344C135.028 15.344 136.895 15.9093 138.324 17.04C139.775 18.1493 140.575 19.7067 140.724 21.712H135.796C135.754 20.944 135.423 20.3147 134.804 19.824C134.207 19.312 133.407 19.056 132.404 19.056C131.53 19.056 130.826 19.28 130.292 19.728C129.78 20.176 129.524 20.8267 129.524 21.68C129.524 22.2773 129.716 22.7787 130.1 23.184C130.506 23.568 130.996 23.888 131.572 24.144C132.17 24.3787 133.002 24.656 134.068 24.976C135.519 25.4027 136.703 25.8293 137.62 26.256C138.538 26.6827 139.327 27.3227 139.988 28.176C140.65 29.0293 140.98 30.1493 140.98 31.536C140.98 32.7307 140.671 33.84 140.052 34.864C139.434 35.888 138.527 36.7093 137.332 37.328C136.138 37.9253 134.719 38.224 133.076 38.224ZM152.576 38.224C151.019 38.224 149.611 37.9573 148.352 37.424C147.115 36.8907 146.134 36.1227 145.408 35.12C144.683 34.1173 144.31 32.9333 144.288 31.568H149.088C149.152 32.4853 149.472 33.2107 150.048 33.744C150.646 34.2773 151.456 34.544 152.48 34.544C153.526 34.544 154.347 34.2987 154.944 33.808C155.542 33.296 155.84 32.6347 155.84 31.824C155.84 31.1627 155.638 30.6187 155.232 30.192C154.827 29.7653 154.315 29.4347 153.696 29.2C153.099 28.944 152.267 28.6667 151.2 28.368C149.75 27.9413 148.566 27.5253 147.648 27.12C146.752 26.6933 145.974 26.064 145.312 25.232C144.672 24.3787 144.352 23.248 144.352 21.84C144.352 20.5173 144.683 19.3653 145.344 18.384C146.006 17.4027 146.934 16.656 148.128 16.144C149.323 15.6107 150.688 15.344 152.224 15.344C154.528 15.344 156.395 15.9093 157.824 17.04C159.275 18.1493 160.075 19.7067 160.224 21.712H155.296C155.254 20.944 154.923 20.3147 154.304 19.824C153.707 19.312 152.907 19.056 151.904 19.056C151.03 19.056 150.326 19.28 149.792 19.728C149.28 20.176 149.024 20.8267 149.024 21.68C149.024 22.2773 149.216 22.7787 149.6 23.184C150.006 23.568 150.496 23.888 151.072 24.144C151.67 24.3787 152.502 24.656 153.568 24.976C155.019 25.4027 156.203 25.8293 157.12 26.256C158.038 26.6827 158.827 27.3227 159.488 28.176C160.15 29.0293 160.48 30.1493 160.48 31.536C160.48 32.7307 160.171 33.84 159.552 34.864C158.934 35.888 158.027 36.7093 156.832 37.328C155.638 37.9253 154.219 38.224 152.576 38.224ZM172.885 32.944C174.933 31.2373 176.565 29.8187 177.781 28.688C178.997 27.536 180.011 26.3413 180.821 25.104C181.632 23.8667 182.037 22.6507 182.037 21.456C182.037 20.368 181.781 19.5147 181.269 18.896C180.757 18.2773 179.968 17.968 178.901 17.968C177.835 17.968 177.013 18.3307 176.437 19.056C175.861 19.76 175.563 20.7307 175.541 21.968H171.189C171.275 19.408 172.032 17.4667 173.461 16.144C174.912 14.8213 176.747 14.16 178.965 14.16C181.397 14.16 183.264 14.8107 184.565 16.112C185.867 17.392 186.517 19.088 186.517 21.2C186.517 22.864 186.069 24.4533 185.173 25.968C184.277 27.4827 183.253 28.8053 182.101 29.936C180.949 31.0453 179.445 32.3893 177.589 33.968H187.029V37.68H171.221V34.352L172.885 32.944ZM189.66 33.456V29.936L200.124 14.96H205.34V29.552H208.156V33.456H205.34V38H200.86V33.456H189.66ZM201.148 19.76L194.588 29.552H201.148V19.76Z" fill="#0B7DB9"/>
<mask id="mask0_4018_999" style="mask-type:luminance" maskUnits="userSpaceOnUse" x="0" y="0" width="46" height="54">
<path d="M45.175 0H0V54H45.175V0Z" fill="white"/>
</mask>
<g mask="url(#mask0_4018_999)">
<path d="M7.88388 0H26.2645C27.6467 0.000772883 29.0043 0.364892 30.2014 1.05585C31.3985 1.74681 32.3928 2.74032 33.0848 3.93678L33.7863 5.15555L33.7925 5.16178V5.16802C33.7925 5.17425 33.7995 5.18117 33.8057 5.19364L44.1237 23.0639C44.8138 24.2622 45.177 25.6207 45.177 27.0035C45.177 28.3862 44.8138 29.7447 44.1237 30.943L33.0869 50.0556C32.3166 51.3911 31.1692 52.4696 29.7886 53.1559C29.7747 53.1628 29.7616 53.1714 29.7498 53.1815C29.7425 53.184 29.736 53.1886 29.7311 53.1946H29.7242C29.7209 53.1982 29.7165 53.2004 29.7117 53.2009C28.6389 53.7251 27.4606 53.9977 26.2666 53.9979H8.1498C7.80806 54.0012 7.46659 53.9757 7.12907 53.9217C13.667 50.6034 18.7853 45.034 21.5411 38.2397H21.7073L26.3961 30.1245C26.945 29.1729 27.2339 28.0937 27.2339 26.9952C27.2339 25.8966 26.945 24.8174 26.3961 23.8658L21.7073 15.7506H21.6623C19.0019 8.99081 14.0103 3.40625 7.59027 0.00692499C7.69206 1.58652e-07 7.7814 0 7.88388 0Z" fill="#0B7DB9"/>
<path d="M7.8834 38.2417H21.5427C18.7869 45.0359 13.6686 50.6053 7.13066 53.9237C6.8061 53.8862 6.48417 53.8286 6.16672 53.7513C5.36504 53.5571 4.59722 53.2431 3.88914 52.8199C2.79046 52.1843 1.8635 51.2901 1.18868 50.215C0.513869 49.1399 0.111601 47.9163 0.0167745 46.6506C-0.0549987 45.5734 0.0951905 44.493 0.458031 43.4763C0.82087 42.4596 1.38863 41.5282 2.12614 40.7398C2.86365 39.9514 3.75518 39.3229 4.74551 38.8933C5.73584 38.4636 6.80386 38.2418 7.8834 38.2417Z" fill="#0B7DB9"/>
<path d="M7.58999 0.00683594C14.0111 3.40629 19.0035 8.99169 21.6641 15.7526H8.14952C6.11618 15.7769 4.14862 15.0327 2.64039 13.6688C1.13217 12.3049 0.194488 10.4218 0.0148967 8.39629C-0.0811772 6.96187 0.217456 5.52848 0.878408 4.25177C0.878408 4.25012 0.87908 4.24853 0.88025 4.24737C0.88142 4.2462 0.882992 4.24554 0.884647 4.24554C0.888054 4.23958 0.89018 4.23298 0.89088 4.22615C1.43641 3.18992 2.20533 2.28783 3.14209 1.58509C4.07885 0.882345 5.16002 0.396491 6.30749 0.162645C6.7298 0.0744621 7.15885 0.022338 7.58999 0.00683594Z" fill="#0B7DB9"/>
<g style="mix-blend-mode:multiply" opacity="0.08">
<path d="M15.282 38.2417H21.5407C18.7854 45.0356 13.6679 50.605 7.13074 53.9237C6.80616 53.8862 6.48423 53.8286 6.16678 53.7513C9.76855 48.9339 12.8256 43.7323 15.282 38.2417Z" fill="#0B7DB9"/>
</g>
<g style="mix-blend-mode:multiply" opacity="0.08">
<path d="M7.58992 0.00683594C14.0111 3.40629 19.0035 8.99169 21.664 15.7526H15.3097C12.879 10.2461 9.86071 5.01826 6.30743 0.159875C6.72982 0.0726229 7.15884 0.0214258 7.58992 0.00683594Z" fill="#0B7DB9"/>
</g>
<g style="mix-blend-mode:screen" opacity="0.4">
<path d="M26.2387 1.91406H26.2643C27.3097 1.91664 28.3361 2.19287 29.2416 2.71527C30.1471 3.23768 30.8999 3.98805 31.4254 4.89175L42.4629 24.0189C42.9856 24.926 43.2607 25.9545 43.2607 27.0014C43.2607 28.0483 42.9856 29.0769 42.4629 29.9839L33.8816 44.8516L33.8498 44.9028L31.4261 49.1007C30.9424 49.9359 30.264 50.6418 29.4487 51.1583C28.6334 51.6749 27.7053 51.9867 26.7435 52.0673C31.8097 44.9596 34.5705 36.4675 34.6527 27.7395C34.7348 19.0115 32.1342 10.4689 27.2026 3.26718L27.1583 3.20278L27.1389 3.17092C26.8467 2.74366 26.5448 2.32886 26.2387 1.91406Z" fill="#0B7DB9"/>
</g>
<g style="mix-blend-mode:screen" opacity="0.6">
<path d="M29.7221 53.1963C29.7288 53.1896 29.7348 53.1896 29.7468 53.1836C29.7397 53.1861 29.7335 53.1905 29.7288 53.1963H29.7221Z" fill="#0B7DB9"/>
</g>
<g style="mix-blend-mode:multiply" opacity="0.25">
<path d="M33.8055 5.1936L44.1235 23.0639C44.8136 24.2622 45.1768 25.6207 45.1768 27.0034C45.1768 28.3862 44.8136 29.7447 44.1235 30.943L33.0867 50.0556C32.3163 51.3911 31.169 52.4696 29.7884 53.1558C29.8777 53.1053 30.0307 53.009 30.2412 52.8691C30.7189 52.5338 31.1613 52.151 31.5618 51.7265C32.1729 51.0709 32.6746 50.3213 33.0479 49.5064C33.5326 48.5626 34.0818 47.4982 34.7008 46.3487C35.9127 44.0323 37.3614 41.3531 38.943 38.5014C39.7408 37.0784 40.5447 35.5986 41.3993 34.1118C41.8272 33.3653 42.2545 32.6188 42.6817 31.8661L43.3264 30.7366C43.5297 30.3934 43.7066 30.0353 43.8555 29.6653C44.4589 28.2131 44.56 26.6009 44.1429 25.0845C43.9259 24.3277 43.606 23.6042 43.1921 22.9344C42.7842 22.2003 42.3819 21.4802 41.9865 20.7648C40.4042 17.9069 38.9562 15.2249 37.7436 12.9176C35.4453 8.58747 33.9793 5.55716 33.8055 5.1936Z" fill="#0B7DB9"/>
</g>
<g style="mix-blend-mode:multiply" opacity="0.25">
<path d="M7.59027 0.00683594L8.80281 0.599603L9.99527 1.25054L11.1503 1.95895L12.2729 2.72069L13.358 3.54405L14.4106 4.41173L15.4188 5.33689L16.3821 6.30637L17.3003 7.32086L18.1749 8.38036L18.9976 9.47726L19.7697 10.6129L20.4906 11.7867L21.1602 12.993L21.7668 14.2305L22.156 15.1307L22.3153 15.3987C23.3935 17.2102 24.4841 19.0162 25.5436 20.8409L27.1364 23.5908C27.7175 24.6324 28.0249 25.8044 28.0297 26.9971C28.0268 27.5914 27.9495 28.183 27.7998 28.7581C27.7238 29.0439 27.6313 29.3251 27.5228 29.6002C27.4136 29.8715 27.2878 30.1359 27.146 30.3917L25.545 33.1478C24.4855 34.9725 23.3949 36.7778 22.3229 38.59L22.1151 38.9473H22.0002L21.6304 39.7783L21.0072 41.0165L20.3181 42.2221L19.5779 43.3959L18.7808 44.5316L17.9388 45.6354L17.0455 46.688L16.1009 47.6962L15.1183 48.6595L14.0851 49.5784L13.0069 50.4405L11.9031 51.2577L10.7549 52.0104L9.58116 52.7119L8.36862 53.3503L7.13115 53.9244L8.29868 53.216L9.4212 52.4633L10.5188 51.6655L11.5776 50.8297L12.5983 49.9496L13.581 49.0306L14.5193 48.0674L15.4195 47.0785L16.274 46.0453L17.078 44.9734L17.8439 43.882L18.5516 42.7532L19.215 41.5982L19.8279 40.4113L20.3895 39.2056L20.7849 38.2424H21.71L26.3989 30.1272C26.9477 29.1756 27.2366 28.0964 27.2366 26.9978C27.2366 25.8993 26.9477 24.8201 26.3989 23.8685L21.71 15.7533H20.9123L20.5231 14.7838L19.9809 13.5844L19.3937 12.4072L18.7497 11.2521L18.0572 10.1296L17.3135 9.02991L16.5289 7.95587L15.6979 6.92269L14.817 5.92689L13.8974 4.96365L12.9404 4.03225L11.9384 3.14587L10.9052 2.29688L9.83323 1.49291L8.72525 0.731176L7.59027 0.00683594Z" fill="#0B7DB9"/>
</g>
<g style="mix-blend-mode:screen" opacity="0.4">
<path d="M27.2017 3.26709L28.0887 4.4914L28.982 5.85698C29.5559 6.78814 30.096 7.73458 30.6025 8.69616C31.1066 9.66564 31.5659 10.6566 31.9805 11.669C32.4015 12.6773 32.7776 13.7042 33.1162 14.7443C33.8044 16.8243 34.3165 18.9584 34.6473 21.1242C34.8197 22.2086 34.9409 23.3 35.0233 24.3976C35.1126 25.5139 35.1452 26.5727 35.1382 27.6827C35.1382 28.7803 35.0877 29.8779 35.0046 30.9748L34.8384 32.6146L34.6092 34.2412L34.3093 35.8624L33.952 37.4696L33.531 39.0582L33.0393 40.6343L32.4909 42.1847L31.878 43.7082L31.2084 45.2137L30.4813 46.6873L29.6856 48.1242L28.8373 49.5341L27.9371 50.9059L27.3879 51.678C28.8559 51.3966 30.1638 50.5719 31.0505 49.3686C31.3053 49.005 31.5221 48.6283 31.7651 48.2454L32.4576 47.1097L33.8481 44.9028L31.4244 49.1006C30.9407 49.9358 30.2623 50.6417 29.447 51.1583C28.6317 51.6748 27.7036 51.9866 26.7419 52.0672C31.808 44.9595 34.5689 36.4674 34.651 27.7394C34.7331 19.0114 32.1332 10.4688 27.2017 3.26709Z" fill="#0B7DB9"/>
</g>
<g style="mix-blend-mode:screen" opacity="0.5">
<path d="M7.88347 38.2417H13.9891C13.9891 38.2417 12.3271 38.4584 9.82935 38.6053C9.21027 38.6503 8.52748 38.6884 7.82115 38.7202C7.12236 38.769 6.43229 38.9039 5.76656 39.1218C4.33339 39.6067 3.07503 40.5035 2.149 41.7C1.68598 42.3044 1.31282 42.9727 1.04104 43.6839C0.795053 44.3738 0.63639 45.0917 0.56876 45.8209C0.56876 46.019 0.562526 46.2101 0.562526 46.4019L0.556291 46.6568L0.575691 46.9185C0.593321 47.2597 0.638007 47.599 0.709337 47.933C0.841934 48.5561 1.04981 49.1607 1.3284 49.7335C1.76132 50.6088 2.34182 51.4029 3.0444 52.081C3.30616 52.3303 3.51667 52.5214 3.66763 52.6426C3.78259 52.732 3.85875 52.7957 3.89061 52.8213C2.79192 52.1857 1.86497 51.2914 1.19016 50.2164C0.51534 49.1413 0.113051 47.9177 0.0182248 46.6519C-0.0537386 45.5748 0.0962644 44.4944 0.458932 43.4776C0.821596 42.4607 1.38922 41.5293 2.1266 40.7408C2.86398 39.9523 3.75541 39.3236 4.74567 38.8938C5.73593 38.4639 6.80393 38.242 7.88347 38.2417Z" fill="#0B7DB9"/>
</g>
<g style="mix-blend-mode:screen" opacity="0.5">
<path d="M0.878449 4.25171C0.852827 4.32857 0.763504 4.60903 0.654781 5.05568C0.482288 5.76741 0.394667 6.49706 0.393725 7.2294C0.395962 7.70881 0.440683 8.18711 0.52737 8.65869C0.567436 8.91325 0.625045 9.16476 0.699795 9.41142C0.737882 9.53261 0.769044 9.66003 0.807823 9.78744C0.846602 9.91486 0.904071 10.043 0.946313 10.1704C1.15546 10.6842 1.41187 11.1775 1.71221 11.644C2.03173 12.1187 2.40184 12.5573 2.81603 12.9521C3.2215 13.356 3.67069 13.7134 4.15529 14.0178C4.6297 14.3163 5.13176 14.5684 5.65453 14.7706C5.90307 14.8708 6.15745 14.9559 6.41626 15.0254C6.65863 15.1019 6.90597 15.1615 7.15656 15.2041C7.40503 15.2567 7.6564 15.2951 7.90929 15.319L8.09419 15.3384C8.11981 15.3446 8.17029 15.3509 8.17029 15.3509L8.25962 15.3571C8.38081 15.3703 8.50275 15.3765 8.61701 15.3896C10.493 15.5427 11.7373 15.7532 11.7373 15.7532H8.14952C6.11622 15.7776 4.14866 15.0334 2.64044 13.6694C1.1322 12.3055 0.194529 10.4225 0.0149377 8.39693C-0.0812638 6.96224 0.217372 5.52863 0.878449 4.25171Z" fill="#0B7DB9"/>
</g>
</g>
</svg>
