<svg width="300" height="200" viewBox="0 0 336 221" fill="none" xmlns="http://www.w3.org/2000/svg">
<path fill-rule="evenodd" clip-rule="evenodd" d="M131.003 64.0993C131.471 64.3569 131.919 64.5209 131.882 64.1576C131.826 63.7006 131.516 63.7724 131.003 64.0993Z" fill="#212121"/>
<path fill-rule="evenodd" clip-rule="evenodd" d="M290.636 144.666C288.484 149.446 286.407 154.534 284.929 159.384C282.656 166.953 281.694 173.88 283.602 178.929C284.2 181.447 286.772 183.015 289.301 182.411C291.845 181.834 293.417 179.301 292.792 176.798C292.657 175.55 293.093 174.256 293.505 172.801C294.446 169.372 296.565 165.795 298.872 161.937C301.82 157.016 305.369 152.102 308.396 147.554C311.15 143.441 313.445 139.624 314.904 136.598C317.206 131.835 317.318 127.833 316.786 125.487C316.637 124.874 311.464 115.759 302.682 119.365C299.543 120.665 291.764 124.362 291.38 124.546C286.707 127.068 278.028 131.627 269.754 134.002C267.14 134.759 264.616 135.43 262.314 135.52C262.191 135.311 262.068 135.102 261.919 134.908C259.759 131.886 255.575 131.166 252.514 133.258C250.816 134.259 248.608 137.085 248.02 138.78C246.893 142.071 248.169 144.725 251.287 146.924C255.535 149.908 261.667 150.774 268.556 150.232C275.796 149.63 283.992 147.124 290.636 144.666ZM298.232 129.394C298.742 128.406 298.914 127.681 298.221 127.518C297.444 127.333 297.965 128.64 298.232 129.394Z" fill="#212121"/>
<path fill-rule="evenodd" clip-rule="evenodd" d="M273.006 153.609C271.129 151.786 268.155 151.807 266.306 153.627C244.142 174.718 220.765 185.419 196.894 185.634C173.649 185.84 150.131 175.817 127.023 156.013C121.887 151.69 113.94 142.696 106.94 132.082C112.755 123.787 116.615 113.957 118.505 104.482C121.293 90.4891 119.184 77.612 114.489 71.2259C111.887 67.6898 108.541 65.5187 104.633 64.608C99.6318 63.4492 92.8447 64.4572 85.0734 70.9742C74.3516 80.0079 71.7821 92.936 75.043 107.178C76.7652 114.665 80.2173 122.526 84.5099 130.082C79.5861 133.966 73.4514 136.206 65.9733 135.378C50.1443 133.73 38.2361 120.858 29.7453 105.727C22.3818 92.6369 13.4986 73.3034 15.7769 57.9625C16.5481 52.7492 18.8407 48.2724 14.4721 44.0002C7.78351 37.3905 1.69625 44.2028 0.626766 51.3632C-1.66251 66.7452 3.94916 85.2935 9.47352 99.5009C19.6124 125.646 38.5512 149.184 64.0265 152.481C75.9692 153.973 86.0879 150.858 94.273 145.046C102.098 155.748 110.527 164.607 116.054 169.056C143.397 190.629 170.876 200.696 197.425 199.235C223.947 197.789 249.631 184.973 273.063 160.233C274.896 158.387 274.884 155.432 273.006 153.609ZM95.9861 111.314C94.3153 106.969 93.1817 102.701 92.8397 98.645C92.4133 93.4865 93.4034 88.7061 97.4581 85.3165C98.1452 84.7509 98.9816 83.9609 99.6688 83.3953C100.193 85.1875 101.102 88.7123 101.125 91.6263C101.146 98.1305 99.6768 105.867 96.6991 113.069C96.4147 112.464 96.1872 111.897 95.9861 111.314Z" fill="#212121"/>
</svg>
