<svg width="323" height="336" viewBox="0 0 323 336" fill="none" xmlns="http://www.w3.org/2000/svg">
<path fill-rule="evenodd" clip-rule="evenodd" d="M31.4227 205.664C33.3003 203.841 36.2744 203.862 38.1231 205.682C60.2873 226.773 83.6639 237.473 107.535 237.688C130.78 237.894 154.298 227.872 177.405 208.068C182.542 203.745 190.489 194.751 197.489 184.137C191.674 175.842 187.814 166.012 185.924 156.537C183.136 142.544 185.245 129.667 189.94 123.281C192.542 119.744 195.888 117.573 199.796 116.663C204.797 115.504 211.584 116.512 219.356 123.029C230.077 132.063 232.647 144.991 229.386 159.233C227.664 166.72 224.212 174.58 219.919 182.137C224.843 186.021 230.978 188.261 238.456 187.432C254.285 185.784 266.193 172.913 274.684 157.782C282.047 144.692 290.93 125.358 288.652 110.017C287.881 104.804 285.588 100.327 289.957 96.0549C296.645 89.4452 302.733 96.2575 303.802 103.418C306.091 118.8 300.48 137.348 294.955 151.556C284.817 177.701 265.878 201.238 240.402 204.536C228.46 206.027 218.341 202.913 210.156 197.101C202.331 207.803 193.902 216.662 188.375 221.111C161.032 242.684 133.553 252.751 107.004 251.29C80.482 249.844 54.798 237.028 31.3664 212.287C29.533 210.442 29.5451 207.487 31.4227 205.664ZM208.443 163.369C210.114 159.024 211.247 154.756 211.589 150.7C212.016 145.541 211.026 140.761 206.971 137.371C206.284 136.806 205.447 136.016 204.76 135.45C204.236 137.242 203.327 140.767 203.304 143.681C203.283 150.185 204.752 157.922 207.73 165.123C208.014 164.519 208.242 163.952 208.443 163.369Z" fill="#212121"/>
<path fill-rule="evenodd" clip-rule="evenodd" d="M204.081 135.036C203.613 135.294 203.164 135.458 203.201 135.094C203.258 134.637 203.568 134.709 204.081 135.036Z" fill="#212121"/>
<path fill-rule="evenodd" clip-rule="evenodd" d="M44.4482 215.602C46.5997 220.383 48.6769 225.47 50.1547 230.32C52.4278 237.889 53.39 244.816 51.4821 249.865C50.8836 252.383 48.3113 253.951 45.7826 253.348C43.2387 252.77 41.6669 250.237 42.2917 247.734C42.4264 246.486 41.9905 245.192 41.5785 243.738C40.6377 240.309 38.5183 236.731 36.2121 232.873C33.2639 227.953 29.7144 223.038 26.6877 218.491C23.9335 214.378 21.6384 210.561 20.1801 207.534C17.8773 202.772 17.7654 198.769 18.2982 196.423C18.4467 195.81 23.6198 186.695 32.4014 190.301C35.5408 191.601 43.3197 195.299 43.7039 195.483C48.3764 198.004 57.056 202.563 65.3293 204.939C67.9437 205.695 70.468 206.366 72.7701 206.457C72.8927 206.248 73.0154 206.039 73.1644 205.845C75.3247 202.822 79.5086 202.102 82.57 204.194C84.2674 205.195 86.4759 208.022 87.0637 209.716C88.1909 213.007 86.9145 215.662 83.7965 217.86C79.5492 220.845 73.4168 221.71 66.5279 221.168C59.2879 220.566 51.0912 218.06 44.4482 215.602ZM36.8518 200.33C36.3416 199.343 36.1696 198.617 36.8629 198.454C37.6395 198.269 37.1187 199.576 36.8518 200.33Z" fill="#212121"/>
</svg>
